<?xml version="1.0" encoding="utf-8"?>
<!-- Generator: Adobe Illustrator 16.0.0, SVG Export Plug-In . SVG Version: 6.00 Build 0)  -->
<!DOCTYPE svg PUBLIC "-//W3C//DTD SVG 1.1//EN" "http://www.w3.org/Graphics/SVG/1.1/DTD/svg11.dtd">
<svg version="1.1" id="Layer_1" xmlns="http://www.w3.org/2000/svg" xmlns:xlink="http://www.w3.org/1999/xlink" x="0px" y="0px"
	 width="256.348px" height="150.93px" viewBox="0 0 256.348 150.93" enable-background="new 0 0 256.348 150.93"
	 xml:space="preserve">
<g>
	<defs>
		<rect id="SVGID_1_" x="-167.119" y="-127.57" width="576.094" height="414.5"/>
	</defs>
	<clipPath id="SVGID_2_">
		<use xlink:href="#SVGID_1_"  overflow="visible"/>
	</clipPath>
	<path clip-path="url(#SVGID_2_)" d="M10.125,9.85c1.314,0.002,2.823,0.379,2.823,3.319v5.979c0,1.164-0.239,2.025-0.715,2.562
		c-0.449,0.507-1.138,0.754-2.107,0.754h-0.001H7.748V9.85H10.125z M7.748,42.779V28.118h2.725c2.582,0,4.667-0.775,6.194-2.308
		c1.519-1.523,2.289-3.861,2.289-6.948v-5.409c0-3.086-0.77-5.426-2.289-6.947c-1.529-1.533-3.614-2.31-6.196-2.31H1.688
		L1.69,42.779H7.748z"/>
	<path clip-path="url(#SVGID_2_)" d="M28.106,32.334l2.116-13.231l2.187,13.231H28.106z M27.283,37.418h5.958l0.893,5.361h5.942
		L33.071,4.198h-5.774L20.498,42.78h5.941L27.283,37.418z"/>
	<path clip-path="url(#SVGID_2_)" d="M44.383,38.714c0.434,0.986,1.041,1.848,1.804,2.559c0.765,0.714,1.67,1.263,2.689,1.629
		c1.005,0.36,2.094,0.543,3.238,0.543c1.174,0,2.289-0.182,3.31-0.542c1.039-0.366,1.954-0.916,2.719-1.629
		c0.759-0.709,1.372-1.568,1.823-2.552c0.455-0.989,0.683-2.114,0.683-3.346v-2.821l-5.709,1.415v1.31
		c0,0.871-0.228,1.487-0.695,1.888c-0.49,0.42-1.121,0.625-1.927,0.625h-0.004c-0.806,0-1.427-0.203-1.899-0.618
		c-0.455-0.4-0.677-1.019-0.677-1.895V11.7c0-0.873,0.22-1.494,0.675-1.893c0.474-0.415,1.128-0.619,1.998-0.619
		c0.832,0.001,1.448,0.198,1.884,0.604c0.428,0.396,0.642,1.039,0.642,1.907v1.855h5.712v-1.949c0-2.46-0.756-4.442-2.25-5.889
		c-1.497-1.448-3.529-2.182-6.038-2.182c-1.238,0-2.391,0.182-3.428,0.542c-1.055,0.364-1.979,0.913-2.748,1.63
		c-0.763,0.713-1.369,1.574-1.803,2.559c-0.436,0.986-0.654,2.108-0.654,3.338v23.771C43.729,36.604,43.95,37.727,44.383,38.714"/>
	<polygon clip-path="url(#SVGID_2_)" points="72.054,42.782 72.054,25.986 77.451,25.986 77.451,42.782 83.511,42.782 83.509,4.202 
		77.451,4.202 77.451,20.381 72.054,20.381 72.054,4.2 65.994,4.2 65.996,42.782 	"/>
	<polygon clip-path="url(#SVGID_2_)" points="97.188,25.75 103.042,25.75 103.042,20.097 97.188,20.097 97.188,9.856 105.471,9.856 
		105.471,4.203 91.128,4.203 91.13,42.783 105.471,42.783 105.471,37.132 97.188,37.13 	"/>
	<path clip-path="url(#SVGID_2_)" d="M112.028,38.716c0.433,0.988,1.041,1.849,1.804,2.561c0.763,0.712,1.668,1.261,2.69,1.629
		c1.004,0.36,2.092,0.542,3.237,0.542c1.174,0,2.289-0.181,3.311-0.542c1.036-0.365,1.95-0.913,2.719-1.629
		c0.758-0.708,1.372-1.564,1.823-2.55c0.454-0.988,0.682-2.115,0.682-3.346v-2.823l-5.709,1.414v1.312
		c0,0.87-0.227,1.487-0.695,1.887c-0.49,0.419-1.121,0.626-1.931,0.626c-0.806,0-1.427-0.203-1.899-0.619
		c-0.455-0.399-0.676-1.019-0.676-1.894V11.702c0-0.873,0.22-1.493,0.674-1.893c0.473-0.415,1.128-0.618,1.998-0.618
		c0.832,0,1.448,0.2,1.885,0.606c0.428,0.396,0.643,1.037,0.643,1.905v1.854l5.711,0.001V11.61c0-2.463-0.756-4.443-2.249-5.889
		c-1.497-1.448-3.529-2.181-6.038-2.181c-1.238,0-2.392,0.182-3.427,0.539c-1.053,0.365-1.979,0.916-2.748,1.633
		c-0.763,0.711-1.37,1.572-1.803,2.558c-0.436,0.987-0.654,2.109-0.654,3.338V35.38C111.375,36.608,111.595,37.731,112.028,38.716"
		/>
	<path clip-path="url(#SVGID_2_)" d="M145.366,35.239c0,0.87-0.234,1.495-0.72,1.91c-0.508,0.436-1.161,0.648-2.004,0.648
		c-0.841,0-1.497-0.213-2.005-0.648c-0.483-0.415-0.72-1.04-0.72-1.91V11.752c0-0.871,0.236-1.497,0.72-1.912
		c0.506-0.435,1.162-0.647,2.003-0.647c0.843,0,1.498,0.212,2.006,0.647c0.484,0.415,0.719,1.041,0.719,1.912L145.366,35.239z
		 M150.694,38.7c0.452-1.002,0.68-2.15,0.68-3.416V11.703c0-1.26-0.229-2.41-0.682-3.413c-0.452-1.004-1.089-1.87-1.893-2.572
		c-0.8-0.69-1.739-1.235-2.797-1.612c-2.139-0.762-4.688-0.741-6.773-0.001c-1.063,0.382-2,0.927-2.775,1.618
		c-0.785,0.698-1.412,1.563-1.864,2.565c-0.452,1.002-0.681,2.15-0.681,3.415v23.582c0,1.265,0.23,2.414,0.681,3.416
		c0.452,1.002,1.077,1.872,1.857,2.582c0.782,0.714,1.724,1.261,2.795,1.628c1.052,0.358,2.195,0.54,3.4,0.54
		c1.172,0,2.3-0.182,3.35-0.54c1.071-0.365,2.017-0.91,2.814-1.622C149.604,40.577,150.24,39.707,150.694,38.7"/>
	<polygon clip-path="url(#SVGID_2_)" points="1.689,54.97 1.689,93.55 16.028,93.552 16.028,87.897 7.749,87.897 7.747,76.518 
		13.601,76.518 13.601,70.864 7.747,70.864 7.747,60.623 16.028,60.623 16.028,54.97 	"/>
	<path clip-path="url(#SVGID_2_)" d="M29.238,94.218c2.913,0,5.099-0.903,6.5-2.684c1.35-1.715,2.034-4.057,2.032-6.952
		c0-1.428-0.186-2.714-0.555-3.822c-0.365-1.096-0.949-2.266-1.744-3.49c-0.47-0.705-1.022-1.483-1.659-2.332
		c-0.63-0.842-1.287-1.699-1.967-2.574c-0.683-0.874-1.346-1.709-1.995-2.503c-0.631-0.776-1.16-1.46-1.592-2.063
		c-0.623-0.836-1.104-1.642-1.429-2.396c-0.31-0.714-0.464-1.494-0.464-2.314c0-0.962,0.237-1.75,0.729-2.407
		c0.433-0.581,1.118-0.862,2.093-0.862c0.845,0,1.475,0.233,1.924,0.711c0.474,0.502,0.702,1.184,0.702,2.083v1.712h5.711v-2.042
		c0-2.363-0.737-4.301-2.19-5.761c-1.465-1.471-3.498-2.214-6.046-2.214c-2.581,0-4.69,0.8-6.271,2.378
		c-1.567,1.571-2.364,3.708-2.364,6.354c0,1.269,0.219,2.608,0.652,3.979c0.43,1.37,1.234,2.952,2.389,4.708
		c0.472,0.71,1.009,1.45,1.595,2.204c0.583,0.747,1.173,1.487,1.772,2.219l1.712,2.088c0.528,0.643,0.974,1.23,1.323,1.75
		c0.688,1.019,1.168,1.946,1.426,2.761c0.258,0.816,0.391,1.626,0.391,2.402c0,1.223-0.257,2.161-0.763,2.789
		c-0.466,0.579-1.189,0.859-2.208,0.859c-0.95,0-1.654-0.25-2.156-0.766c-0.516-0.535-0.768-1.137-0.768-1.84V84.74l-5.712-1.416
		l0.002,2.916c0,1.103,0.209,2.151,0.626,3.119c0.417,0.973,1.016,1.829,1.78,2.543c0.765,0.711,1.708,1.282,2.805,1.696
		C26.612,94.008,27.862,94.218,29.238,94.218"/>
	<polygon clip-path="url(#SVGID_2_)" points="51.422,60.625 55.787,60.625 55.787,54.973 40.999,54.971 40.999,60.625 
		45.364,60.625 45.364,93.555 51.422,93.555 	"/>
	<path clip-path="url(#SVGID_2_)" d="M76.29,92.059c0.801-0.715,1.436-1.585,1.889-2.59c0.453-1.002,0.681-2.15,0.681-3.414
		l-0.002-31.082H72.9v31.034c0,0.87-0.236,1.495-0.718,1.912c-0.508,0.435-1.18,0.646-2.056,0.646c-0.809,0-1.447-0.211-1.956-0.646
		c-0.483-0.415-0.718-1.042-0.718-1.912V54.973h-6.058v31.082c0,1.264,0.228,2.413,0.681,3.414c0.453,1.005,1.078,1.873,1.858,2.581
		c0.777,0.713,1.709,1.261,2.766,1.628c1.036,0.358,2.173,0.542,3.379,0.542c1.205,0,2.349-0.184,3.399-0.54
		C74.543,93.316,75.489,92.77,76.29,92.059"/>
	<path clip-path="url(#SVGID_2_)" d="M94.604,60.627c1.316,0,2.825,0.377,2.825,3.317v20.639c0,1.165-0.24,2.025-0.716,2.562
		c-0.45,0.508-1.14,0.755-2.108,0.755h-2.376l-0.002-27.274H94.604z M94.952,54.975H86.17v38.58l8.782,0.002
		c2.583,0,4.667-0.778,6.196-2.311c1.519-1.522,2.29-3.86,2.29-6.947v-20.07c0-3.085-0.772-5.423-2.291-6.945
		C99.617,55.75,97.533,54.975,94.952,54.975"/>
	<rect x="110.391" y="54.975" clip-path="url(#SVGID_2_)" width="6.06" height="38.582"/>
	<path clip-path="url(#SVGID_2_)" d="M129.413,62.525c0-0.873,0.235-1.497,0.72-1.913c0.507-0.436,1.163-0.648,2.006-0.648
		c0.839,0,1.495,0.212,2.003,0.649c0.483,0.415,0.719,1.039,0.719,1.912l0.002,23.485c0,0.871-0.235,1.496-0.719,1.913
		c-0.507,0.433-1.164,0.644-2.005,0.644c-0.843,0-1.499-0.211-2.006-0.646c-0.484-0.414-0.72-1.039-0.72-1.912V62.525z
		 M132.138,94.222c1.175,0,2.303-0.182,3.351-0.54c1.065-0.363,2.012-0.908,2.813-1.621c0.799-0.715,1.435-1.586,1.886-2.588
		c0.453-1.004,0.683-2.152,0.683-3.414l-0.002-23.583c0-1.263-0.229-2.41-0.681-3.415c-0.453-1.006-1.09-1.87-1.896-2.57
		c-0.792-0.69-1.732-1.233-2.796-1.613c-2.146-0.763-4.689-0.742-6.771,0c-1.063,0.38-1.996,0.923-2.775,1.615
		c-0.785,0.698-1.412,1.562-1.863,2.565c-0.453,1.002-0.683,2.15-0.683,3.415v23.582c0,1.266,0.229,2.414,0.683,3.414
		c0.451,1.002,1.076,1.873,1.856,2.583c0.782,0.715,1.72,1.261,2.794,1.628C129.789,94.04,130.931,94.222,132.138,94.222"/>
	<path clip-path="url(#SVGID_2_)" d="M9.888,120.589l2.188,13.231H7.771L9.888,120.589z M0.164,144.266h5.939l0.846-5.358h5.959
		l0.893,5.36h5.939l-7.003-38.582l-5.774-0.003L0.164,144.266z"/>
	<path clip-path="url(#SVGID_2_)" d="M30.956,111.244h2.328c1.951,0,2.824,0.935,2.824,3.032v4.84c0,0.997-0.196,1.719-0.566,2.096
		c-0.359,0.367-1.14,0.559-2.257,0.559h-2.328V111.244z M40.054,124.168c0.499-0.389,0.908-0.87,1.228-1.439
		c0.526-0.938,0.784-2.18,0.784-3.801v-5.173c0-2.494-0.768-4.487-2.28-5.917c-1.511-1.427-3.581-2.152-6.155-2.152l-8.634-0.001
		v38.583h5.959V126.95h2.625c1.531,0,2.071,0.318,2.256,0.509c0.338,0.345,0.517,1.038,0.517,2.001v14.808h6.009v-14.664
		c0-1.64-0.303-2.96-0.898-3.924C41.089,125.073,40.618,124.569,40.054,124.168"/>
	<path clip-path="url(#SVGID_2_)" d="M60.171,113.235v23.392c0,0.87-0.237,1.494-0.721,1.91c-0.506,0.435-1.161,0.648-2.004,0.648
		c-0.842,0-1.496-0.214-2.003-0.648c-0.485-0.416-0.721-1.04-0.721-1.91v-23.392c0-0.87,0.236-1.497,0.719-1.912
		c0.509-0.436,1.166-0.646,2.005-0.646c0.842,0,1.497,0.21,2.006,0.646C59.934,111.738,60.171,112.365,60.171,113.235
		 M66.179,136.389v-23.201c0-1.263-0.229-2.411-0.68-3.415c-0.453-1.006-1.092-1.869-1.896-2.57
		c-0.79-0.689-1.731-1.232-2.795-1.612c-2.142-0.763-4.688-0.742-6.772,0c-1.062,0.38-1.997,0.923-2.777,1.615
		c-0.785,0.701-1.413,1.565-1.863,2.567c-0.451,1.002-0.681,2.15-0.681,3.414v23.202c0,1.265,0.23,2.412,0.681,3.416
		c0.45,1.002,1.077,1.87,1.857,2.581c0.78,0.715,1.721,1.264,2.795,1.626c1.539,0.526,3.344,0.678,5.081,0.413
		c0.363-0.055,0.721-0.13,1.067-0.224l3.602,4.578l4.419-3.188l-3.486-4.412C65.691,139.842,66.179,138.232,66.179,136.389"/>
	<path clip-path="url(#SVGID_2_)" d="M84.542,136.722c0,0.87-0.236,1.495-0.719,1.912c-0.509,0.436-1.18,0.646-2.055,0.646
		c-0.81,0-1.45-0.21-1.957-0.646c-0.483-0.417-0.719-1.042-0.719-1.912v-31.034h-6.058v31.081c0,1.264,0.229,2.414,0.681,3.414
		c0.452,1.002,1.076,1.872,1.857,2.584c0.784,0.717,1.714,1.261,2.767,1.626c1.035,0.358,2.172,0.542,3.379,0.542
		c1.204,0,2.349-0.184,3.399-0.54c1.068-0.363,2.013-0.91,2.813-1.621c0.801-0.714,1.436-1.586,1.889-2.591
		c0.453-1,0.681-2.15,0.681-3.413v-31.082h-5.958V136.722z"/>
	<rect x="97.812" y="105.688" clip-path="url(#SVGID_2_)" width="6.058" height="38.583"/>
	<polygon clip-path="url(#SVGID_2_)" points="109.367,111.344 113.732,111.344 113.732,144.271 119.79,144.271 119.79,111.344 
		124.154,111.344 124.154,105.688 109.367,105.688 	"/>
	<polygon clip-path="url(#SVGID_2_)" points="129.651,144.272 143.991,144.272 143.991,138.618 135.709,138.618 135.709,127.238 
		141.562,127.238 141.562,121.587 135.709,121.587 135.709,111.344 143.991,111.346 143.991,105.689 129.651,105.689 	"/>
	<path clip-path="url(#SVGID_2_)" d="M157.49,105.027c-1.235,0-2.392,0.181-3.428,0.541c-1.054,0.363-1.979,0.911-2.748,1.631
		c-0.762,0.711-1.368,1.571-1.805,2.56c-0.433,0.987-0.655,2.109-0.655,3.337v23.771c0,1.229,0.223,2.35,0.655,3.339
		c0.437,0.989,1.043,1.848,1.803,2.559c0.767,0.716,1.672,1.262,2.69,1.627c1.004,0.361,2.094,0.547,3.238,0.547
		c1.175,0,2.287-0.184,3.309-0.544c1.038-0.366,1.955-0.914,2.721-1.629c0.759-0.71,1.372-1.565,1.822-2.551
		c0.454-0.991,0.685-2.117,0.685-3.348v-2.821l-5.714,1.413v1.314c0,0.871-0.227,1.485-0.694,1.887
		c-0.489,0.421-1.121,0.623-1.931,0.623c-0.804,0-1.425-0.202-1.899-0.617c-0.452-0.4-0.675-1.021-0.675-1.893v-23.581
		c0-0.874,0.223-1.494,0.675-1.895c0.475-0.415,1.128-0.615,2-0.615c0.83,0,1.447,0.197,1.883,0.602
		c0.427,0.398,0.642,1.04,0.642,1.908v1.854h5.714v-1.948c0-2.46-0.758-4.441-2.251-5.89
		C162.031,105.763,160,105.027,157.49,105.027"/>
	<polygon clip-path="url(#SVGID_2_)" points="169.081,111.347 173.445,111.347 173.445,144.273 179.504,144.273 179.504,111.347 
		183.869,111.347 183.869,105.691 169.081,105.691 	"/>
	<path clip-path="url(#SVGID_2_)" d="M200.772,136.727c0,0.87-0.234,1.495-0.719,1.911c-0.507,0.438-1.178,0.647-2.054,0.647
		c-0.809,0-1.448-0.21-1.955-0.647c-0.485-0.416-0.719-1.041-0.719-1.911v-31.033h-6.058v31.08c0,1.268,0.228,2.418,0.681,3.415
		c0.45,1.004,1.076,1.873,1.857,2.585c0.781,0.715,1.713,1.262,2.765,1.625c1.035,0.357,2.171,0.542,3.379,0.542
		c1.204,0,2.348-0.185,3.399-0.54c1.068-0.363,2.015-0.91,2.812-1.621c0.799-0.713,1.437-1.583,1.891-2.589
		c0.451-1.002,0.681-2.15,0.681-3.416v-31.079l-5.961-0.002V136.727z"/>
	<path clip-path="url(#SVGID_2_)" d="M218.961,111.252l2.326,0.002c1.954,0,2.824,0.935,2.824,3.034v4.838
		c0,0.994-0.195,1.719-0.565,2.096c-0.358,0.365-1.141,0.558-2.259,0.558h-2.326V111.252z M228.059,124.178
		c0.497-0.39,0.908-0.87,1.229-1.439c0.526-0.938,0.784-2.182,0.784-3.801v-5.173c0-2.496-0.769-4.488-2.28-5.917
		c-1.515-1.43-3.583-2.153-6.155-2.153H213v38.581h5.961v-17.316h2.624c1.531,0,2.07,0.316,2.256,0.507
		c0.34,0.348,0.519,1.041,0.519,2.004v14.808h6.01v-14.666c0-1.638-0.303-2.958-0.898-3.923
		C229.097,125.085,228.625,124.578,228.059,124.178"/>
	<path clip-path="url(#SVGID_2_)" d="M246.207,120.602l2.187,13.23h-4.303L246.207,120.602z M243.28,105.694l-6.798,38.58
		l5.944,0.003l0.843-5.36h5.957l0.894,5.36h5.939l-7.006-38.583H243.28z"/>
	<path clip-path="url(#SVGID_2_)" d="M169.712,60.598c1.32,0,2.839,0.377,2.839,3.321V84.58c0,1.165-0.241,2.029-0.719,2.566
		c-0.452,0.506-1.144,0.753-2.117,0.753h-0.003h-2.387l-0.002-27.301H169.712z M178.594,84.296V64.205
		c0-3.09-0.776-5.428-2.303-6.955c-1.538-1.534-3.632-2.311-6.23-2.313h-8.832V93.56h8.833c2.598,0,4.691-0.777,6.229-2.309
		C177.818,89.726,178.594,87.386,178.594,84.296"/>
	<polygon clip-path="url(#SVGID_2_)" points="199.38,93.562 199.38,87.902 191.053,87.902 191.053,76.51 196.937,76.51 
		196.937,70.851 191.053,70.851 191.053,60.599 199.38,60.599 199.38,54.94 184.958,54.94 184.959,93.562 	"/>
</g>
</svg>
